<svg width="637" height="199" viewBox="0 0 637 199" fill="none" xmlns="http://www.w3.org/2000/svg">
<rect width="637" height="199" fill="#081400"/>
<path d="M71.975 75.572H76.519V123H71.975V75.572ZM91.642 75.572V79.832H56.923V75.572H91.642Z" fill="#E6E4CE"/>
<path d="M100.819 123H96.4173V101.771C96.4173 99.073 96.9143 96.7063 97.9083 94.671C98.9023 92.5883 100.322 90.979 102.168 89.843C104.062 88.6597 106.334 88.068 108.984 88.068C110.073 88.068 111.114 88.1863 112.108 88.423C113.102 88.6123 114.049 88.92 114.948 89.346V93.819C114.096 93.2983 113.197 92.9197 112.25 92.683C111.304 92.4463 110.333 92.328 109.339 92.328C106.736 92.328 104.653 93.2037 103.091 94.955C101.577 96.7063 100.819 99.0493 100.819 101.984V123ZM135.319 123.71C132.006 123.71 129.024 122.905 126.373 121.296C123.77 119.639 121.687 117.462 120.125 114.764C118.611 112.019 117.853 108.989 117.853 105.676C117.853 102.41 118.634 99.428 120.196 96.73C121.806 93.9847 123.959 91.8073 126.657 90.198C129.403 88.5887 132.479 87.784 135.887 87.784C139.295 87.784 142.348 88.5887 145.046 90.198C147.792 91.76 149.969 93.89 151.578 96.588C153.188 99.286 153.992 102.315 153.992 105.676V123H149.803V109.794L151.649 107.096C151.649 110.173 150.939 112.965 149.519 115.474C148.099 117.983 146.159 119.994 143.697 121.509C141.283 122.976 138.491 123.71 135.319 123.71ZM135.887 119.521C138.443 119.521 140.763 118.906 142.845 117.675C144.928 116.397 146.561 114.717 147.744 112.634C148.975 110.551 149.59 108.256 149.59 105.747C149.59 103.238 148.975 100.943 147.744 98.86C146.561 96.7773 144.928 95.1207 142.845 93.89C140.763 92.612 138.443 91.973 135.887 91.973C133.331 91.973 131.012 92.612 128.929 93.89C126.894 95.1207 125.261 96.7773 124.03 98.86C122.847 100.943 122.255 103.238 122.255 105.747C122.255 108.256 122.847 110.551 124.03 112.634C125.261 114.717 126.894 116.397 128.929 117.675C131.012 118.906 133.331 119.521 135.887 119.521ZM181.738 91.973C179.135 91.973 176.934 92.612 175.135 93.89C173.384 95.168 172.035 96.8483 171.088 98.931C170.189 101.014 169.739 103.286 169.739 105.747V123H165.337V105.392C165.337 102.079 165.976 99.0967 167.254 96.446C168.58 93.7953 170.449 91.689 172.863 90.127C175.325 88.565 178.283 87.784 181.738 87.784C185.288 87.784 188.294 88.565 190.755 90.127C193.264 91.6417 195.181 93.7243 196.506 96.375C197.832 99.0257 198.494 102.008 198.494 105.321V123H194.092V105.818C194.092 103.357 193.619 101.085 192.672 99.002C191.726 96.872 190.329 95.168 188.483 93.89C186.685 92.612 184.436 91.973 181.738 91.973ZM221.353 123.639C218.466 123.639 215.862 123.024 213.543 121.793C211.224 120.515 209.425 118.622 208.147 116.113L211.768 114.125C212.809 116.113 214.111 117.509 215.673 118.314C217.282 119.119 219.128 119.521 221.211 119.521C222.773 119.521 224.193 119.308 225.471 118.882C226.749 118.409 227.767 117.746 228.524 116.894C229.281 115.995 229.66 114.882 229.66 113.557C229.66 112.09 229.163 111.001 228.169 110.291C227.175 109.534 225.897 108.966 224.335 108.587C222.82 108.161 221.187 107.759 219.436 107.38C217.685 107.001 216.028 106.481 214.466 105.818C212.951 105.155 211.697 104.209 210.703 102.978C209.709 101.747 209.212 100.043 209.212 97.866C209.212 95.9253 209.733 94.2213 210.774 92.754C211.863 91.2867 213.306 90.1507 215.105 89.346C216.904 88.494 218.892 88.068 221.069 88.068C222.962 88.068 224.666 88.3283 226.181 88.849C227.743 89.3697 229.116 90.127 230.299 91.121C231.482 92.0677 232.453 93.2273 233.21 94.6L229.589 96.659C228.69 94.9077 227.506 93.7243 226.039 93.109C224.572 92.4937 222.939 92.186 221.14 92.186C219.862 92.186 218.655 92.4227 217.519 92.896C216.383 93.322 215.436 93.961 214.679 94.813C213.969 95.6177 213.614 96.6117 213.614 97.795C213.614 99.1677 214.111 100.233 215.105 100.99C216.099 101.7 217.353 102.268 218.868 102.694C220.43 103.12 222.087 103.522 223.838 103.901C225.589 104.28 227.222 104.8 228.737 105.463C230.299 106.126 231.577 107.096 232.571 108.374C233.565 109.605 234.062 111.309 234.062 113.486C234.062 115.569 233.47 117.367 232.287 118.882C231.151 120.397 229.613 121.58 227.672 122.432C225.731 123.237 223.625 123.639 221.353 123.639ZM258.739 123.71C256.372 123.71 254.124 123.26 251.994 122.361C249.864 121.414 247.994 120.136 246.385 118.527C244.776 116.87 243.498 114.953 242.551 112.776C241.652 110.551 241.202 108.208 241.202 105.747C241.202 103.238 241.652 100.919 242.551 98.789C243.498 96.6117 244.776 94.6947 246.385 93.038C247.994 91.3813 249.864 90.1033 251.994 89.204C254.124 88.2573 256.372 87.784 258.739 87.784C261.816 87.784 264.656 88.4703 267.259 89.843C269.862 91.2157 271.969 93.3693 273.578 96.304L269.886 98.434C268.655 96.2093 267.07 94.5763 265.129 93.535C263.188 92.4937 261.058 91.973 258.739 91.973C256.372 91.973 254.195 92.612 252.207 93.89C250.219 95.1207 248.61 96.7773 247.379 98.86C246.196 100.943 245.604 103.238 245.604 105.747C245.604 108.256 246.196 110.551 247.379 112.634C248.61 114.717 250.219 116.397 252.207 117.675C254.195 118.906 256.372 119.521 258.739 119.521C261.058 119.521 263.188 119 265.129 117.959C267.07 116.918 268.655 115.308 269.886 113.131L273.578 115.19C271.969 118.077 269.862 120.231 267.259 121.651C264.656 123.024 261.816 123.71 258.739 123.71ZM297.017 123.71C293.657 123.71 290.627 122.929 287.929 121.367C285.231 119.758 283.101 117.604 281.539 114.906C280.025 112.161 279.267 109.084 279.267 105.676C279.267 102.363 279.977 99.357 281.397 96.659C282.817 93.9137 284.805 91.7363 287.361 90.127C289.917 88.5177 292.876 87.713 296.236 87.713C299.597 87.713 302.508 88.4467 304.969 89.914C307.431 91.3813 309.348 93.393 310.72 95.949C312.093 98.505 312.779 101.416 312.779 104.682V107.309H282.462L283.598 104.256C283.362 107.096 283.788 109.676 284.876 111.995C285.965 114.267 287.551 116.089 289.633 117.462C291.763 118.835 294.225 119.521 297.017 119.521C299.384 119.521 301.561 119.048 303.549 118.101C305.585 117.107 307.218 115.521 308.448 113.344L311.856 115.19C310.294 118.03 308.212 120.16 305.608 121.58C303.052 123 300.189 123.71 297.017 123.71ZM283.74 103.759H308.377C308.33 101.345 307.762 99.2623 306.673 97.511C305.632 95.7123 304.212 94.3397 302.413 93.393C300.615 92.399 298.556 91.902 296.236 91.902C293.87 91.902 291.787 92.4227 289.988 93.464C288.19 94.5053 286.746 95.9253 285.657 97.724C284.616 99.5227 283.977 101.534 283.74 103.759ZM338.507 91.973C335.903 91.973 333.702 92.612 331.904 93.89C330.152 95.168 328.803 96.8483 327.857 98.931C326.957 101.014 326.508 103.286 326.508 105.747V123H322.106V105.392C322.106 102.079 322.745 99.0967 324.023 96.446C325.348 93.7953 327.218 91.689 329.632 90.127C332.093 88.565 335.051 87.784 338.507 87.784C342.057 87.784 345.062 88.565 347.524 90.127C350.032 91.6417 351.949 93.7243 353.275 96.375C354.6 99.0257 355.263 102.008 355.263 105.321V123H350.861V105.818C350.861 103.357 350.387 101.085 349.441 99.002C348.494 96.872 347.098 95.168 345.252 93.89C343.453 92.612 341.205 91.973 338.507 91.973ZM426.883 123.71C423.523 123.71 420.493 122.929 417.795 121.367C415.097 119.758 412.967 117.604 411.405 114.906C409.891 112.161 409.133 109.084 409.133 105.676C409.133 102.363 409.843 99.357 411.263 96.659C412.683 93.9137 414.671 91.7363 417.227 90.127C419.783 88.5177 422.742 87.713 426.102 87.713C429.463 87.713 432.374 88.4467 434.835 89.914C437.297 91.3813 439.214 93.393 440.586 95.949C441.959 98.505 442.645 101.416 442.645 104.682V107.309H412.328L413.464 104.256C413.228 107.096 413.654 109.676 414.742 111.995C415.831 114.267 417.417 116.089 419.499 117.462C421.629 118.835 424.091 119.521 426.883 119.521C429.25 119.521 431.427 119.048 433.415 118.101C435.451 117.107 437.084 115.521 438.314 113.344L441.722 115.19C440.16 118.03 438.078 120.16 435.474 121.58C432.918 123 430.055 123.71 426.883 123.71ZM413.606 103.759H438.243C438.196 101.345 437.628 99.2623 436.539 97.511C435.498 95.7123 434.078 94.3397 432.279 93.393C430.481 92.399 428.422 91.902 426.102 91.902C423.736 91.902 421.653 92.4227 419.854 93.464C418.056 94.5053 416.612 95.9253 415.523 97.724C414.482 99.5227 413.843 101.534 413.606 103.759ZM468.373 91.973C465.77 91.973 463.569 92.612 461.77 93.89C460.019 95.168 458.67 96.8483 457.723 98.931C456.824 101.014 456.374 103.286 456.374 105.747V123H451.972V105.392C451.972 102.079 452.611 99.0967 453.889 96.446C455.214 93.7953 457.084 91.689 459.498 90.127C461.959 88.565 464.918 87.784 468.373 87.784C471.923 87.784 474.929 88.565 477.39 90.127C479.899 91.6417 481.816 93.7243 483.141 96.375C484.466 99.0257 485.129 102.008 485.129 105.321V123H480.727V105.818C480.727 103.357 480.254 101.085 479.307 99.002C478.36 96.872 476.964 95.168 475.118 93.89C473.319 92.612 471.071 91.973 468.373 91.973ZM511.538 123.71C509.171 123.71 506.923 123.26 504.793 122.361C502.663 121.414 500.793 120.136 499.184 118.527C497.574 116.87 496.296 114.953 495.35 112.776C494.45 110.551 494.001 108.208 494.001 105.747C494.001 103.238 494.45 100.919 495.35 98.789C496.296 96.6117 497.574 94.6947 499.184 93.038C500.793 91.3813 502.663 90.1033 504.793 89.204C506.923 88.2573 509.171 87.784 511.538 87.784C514.614 87.784 517.454 88.4703 520.058 89.843C522.661 91.2157 524.767 93.3693 526.377 96.304L522.685 98.434C521.454 96.2093 519.868 94.5763 517.928 93.535C515.987 92.4937 513.857 91.973 511.538 91.973C509.171 91.973 506.994 92.612 505.006 93.89C503.018 95.1207 501.408 96.7773 500.178 98.86C498.994 100.943 498.403 103.238 498.403 105.747C498.403 108.256 498.994 110.551 500.178 112.634C501.408 114.717 503.018 116.397 505.006 117.675C506.994 118.906 509.171 119.521 511.538 119.521C513.857 119.521 515.987 119 517.928 117.959C519.868 116.918 521.454 115.308 522.685 113.131L526.377 115.19C524.767 118.077 522.661 120.231 520.058 121.651C517.454 123.024 514.614 123.71 511.538 123.71ZM549.816 123.71C546.455 123.71 543.426 122.929 540.728 121.367C538.03 119.758 535.9 117.604 534.338 114.906C532.823 112.161 532.066 109.084 532.066 105.676C532.066 102.363 532.776 99.357 534.196 96.659C535.616 93.9137 537.604 91.7363 540.16 90.127C542.716 88.5177 545.674 87.713 549.035 87.713C552.396 87.713 555.307 88.4467 557.768 89.914C560.229 91.3813 562.146 93.393 563.519 95.949C564.892 98.505 565.578 101.416 565.578 104.682V107.309H535.261L536.397 104.256C536.16 107.096 536.586 109.676 537.675 111.995C538.764 114.267 540.349 116.089 542.432 117.462C544.562 118.835 547.023 119.521 549.816 119.521C552.183 119.521 554.36 119.048 556.348 118.101C558.383 117.107 560.016 115.521 561.247 113.344L564.655 115.19C563.093 118.03 561.01 120.16 558.407 121.58C555.851 123 552.987 123.71 549.816 123.71ZM536.539 103.759H561.176C561.129 101.345 560.561 99.2623 559.472 97.511C558.431 95.7123 557.011 94.3397 555.212 93.393C553.413 92.399 551.354 91.902 549.035 91.902C546.668 91.902 544.586 92.4227 542.787 93.464C540.988 94.5053 539.545 95.9253 538.456 97.724C537.415 99.5227 536.776 101.534 536.539 103.759Z" fill="white"/>
<path d="M382.168 123.781C378.76 123.781 375.684 122.976 372.938 121.367C370.24 119.71 368.087 117.533 366.477 114.835C364.915 112.09 364.134 109.084 364.134 105.818C364.134 102.41 364.915 99.357 366.477 96.659C368.039 93.9137 370.169 91.76 372.867 90.198C375.565 88.5887 378.595 87.784 381.955 87.784C384.985 87.784 387.73 88.5177 390.191 89.985C392.7 91.405 394.688 93.322 396.155 95.736C397.67 98.15 398.427 100.801 398.427 103.688L395.8 100.99L395.871 72.732H400.273V105.818C400.273 109.179 399.469 112.232 397.859 114.977C396.25 117.675 394.073 119.829 391.327 121.438C388.629 123 385.576 123.781 382.168 123.781ZM382.168 119.592C384.724 119.592 387.044 118.977 389.126 117.746C391.209 116.468 392.842 114.788 394.025 112.705C395.256 110.622 395.871 108.327 395.871 105.818C395.871 103.309 395.256 101.014 394.025 98.931C392.842 96.801 391.209 95.1207 389.126 93.89C387.044 92.612 384.724 91.973 382.168 91.973C379.612 91.973 377.293 92.612 375.21 93.89C373.175 95.1207 371.542 96.801 370.311 98.931C369.128 101.014 368.536 103.309 368.536 105.818C368.536 108.327 369.128 110.622 370.311 112.705C371.542 114.788 373.175 116.468 375.21 117.746C377.293 118.977 379.612 119.592 382.168 119.592Z" fill="#5863F8"/>
<rect x="480.691" y="122.992" width="4.41439" height="61" transform="rotate(0.198289 480.691 122.992)" fill="#5863F8"/>
<rect x="149.803" y="122.999" width="4.19497" height="61" transform="rotate(0.198289 149.803 122.999)" fill="#E6E4CE"/>
<ellipse cx="246" cy="143.5" rx="6" ry="5.5" fill="white"/>
</svg>
